<?xml version="1.0" encoding="UTF-8"?>
<!--Generator: Apple Native CoreSVG 232.5-->
<!DOCTYPE svg
PUBLIC "-//W3C//DTD SVG 1.1//EN"
       "http://www.w3.org/Graphics/SVG/1.1/DTD/svg11.dtd">
<svg version="1.1" xmlns="http://www.w3.org/2000/svg" xmlns:xlink="http://www.w3.org/1999/xlink" width="103.667" height="80.3564">
 <g>
  <rect height="80.3564" opacity="0" width="103.667" x="0" y="0"/>
  <path d="M13.2959 80.3564L49.1162 80.3564L49.1162 74.3066L13.4326 74.3066C8.64746 74.3066 6.0498 71.7773 6.0498 66.8555L6.0498 42.8955L0 42.8955L0 67.1973C0 75.9473 4.47754 80.3564 13.2959 80.3564ZM54.5508 80.3564L90.2344 80.3564C99.0869 80.3564 103.564 75.8789 103.564 67.1973L103.564 42.8955L97.4805 42.8955L97.4805 66.8555C97.4805 71.7773 94.8145 74.3066 90.1318 74.3066L54.5508 74.3066ZM97.4805 37.4609L103.564 37.4609L103.564 13.1934C103.564 4.47754 99.0869 0 90.2344 0L54.5508 0L54.5508 6.0498L90.1318 6.0498C94.8145 6.0498 97.4805 8.61328 97.4805 13.501ZM0 37.4609L6.0498 37.4609L6.0498 13.501C6.0498 8.61328 8.64746 6.0498 13.4326 6.0498L49.1162 6.0498L49.1162 0L13.2959 0C4.47754 0 0 4.44336 0 13.1934Z" fill="#ffffff"/>
  <path d="M50.9961 49.1846C52.9102 49.1846 54.0381 47.9883 54.0381 46.4502C54.0381 46.2109 54.0381 45.9375 54.0381 45.6982C54.0381 43.1348 55.4395 41.5625 58.6182 39.4092C62.9932 36.5039 65.7275 33.9404 65.7275 28.9502C65.7275 22.0801 59.5752 18.1494 52.2607 18.1494C44.8779 18.1494 40.0586 21.8408 38.999 26.0107C38.7939 26.6943 38.6914 27.3438 38.6914 28.0615C38.6914 29.7705 39.9902 30.7275 41.2891 30.7275C42.6221 30.7275 43.4766 30.0781 44.126 29.0869L44.7412 28.1641C45.9375 25.3271 48.5693 23.3105 52.0215 23.3105C56.3965 23.3105 59.165 25.7373 59.165 29.2578C59.165 32.2656 57.4219 33.8379 53.4229 36.6064C50.1416 38.8965 47.9883 41.2207 47.9883 45.3564C47.9883 45.6299 47.9883 45.9033 47.9883 46.1768C47.9883 48.1592 49.082 49.1846 50.9961 49.1846ZM50.9277 62.002C53.252 62.002 55.2686 60.1221 55.2686 57.7979C55.2686 55.4395 53.2861 53.5938 50.9277 53.5938C48.5352 53.5938 46.5869 55.4736 46.5869 57.7979C46.5869 60.0879 48.5693 62.002 50.9277 62.002Z" fill="#ffffff"/>
 </g>
</svg>
