<?xml version="1.0" encoding="UTF-8"?>
<!--Generator: Apple Native CoreSVG 232.5-->
<!DOCTYPE svg
PUBLIC "-//W3C//DTD SVG 1.1//EN"
       "http://www.w3.org/Graphics/SVG/1.1/DTD/svg11.dtd">
<svg version="1.1" xmlns="http://www.w3.org/2000/svg" xmlns:xlink="http://www.w3.org/1999/xlink" width="104.624" height="99.7705">
 <g>
  <rect height="99.7705" opacity="0" width="104.624" x="0" y="0"/>
  <path d="M83.9795 91.8408L25.9424 91.8408C24.5752 91.8408 23.5156 92.8662 23.5156 94.2334C23.5156 95.6348 24.5752 96.6602 25.9424 96.6602L83.9795 96.6602C85.3467 96.6602 86.4404 95.6348 86.4404 94.2334C86.4404 92.8662 85.3467 91.8408 83.9795 91.8408Z" fill="#66d4cf"/>
  <path d="M83.9795 76.8359L25.9424 76.8359C24.5752 76.8359 23.5156 77.8955 23.5156 79.2627C23.5156 80.6641 24.5752 81.6895 25.9424 81.6895L83.9795 81.6895C85.3467 81.6895 86.4404 80.6641 86.4404 79.2627C86.4404 77.8955 85.3467 76.8359 83.9795 76.8359Z" fill="#66d4cf"/>
  <path d="M24.7461 66.2744L79.6729 66.2744C93.9258 66.2744 104.624 55.4736 104.624 42.0752C104.624 28.2324 93.2764 18.1152 78.5107 18.1152C72.9736 7.10938 62.9248 0 50.0049 0C33.5986 0 20.0977 13.0225 18.6621 29.3945C10.5957 31.6846 4.40918 38.4863 4.40918 47.7832C4.40918 57.9688 11.8604 66.2744 24.7461 66.2744Z" fill="#ffffff"/>
 </g>
</svg>
