<?xml version="1.0" encoding="UTF-8"?>
<!--Generator: Apple Native CoreSVG 232.5-->
<!DOCTYPE svg
PUBLIC "-//W3C//DTD SVG 1.1//EN"
       "http://www.w3.org/Graphics/SVG/1.1/DTD/svg11.dtd">
<svg version="1.1" xmlns="http://www.w3.org/2000/svg" xmlns:xlink="http://www.w3.org/1999/xlink" width="77.3993" height="88.4912">
 <g>
  <rect height="88.4912" opacity="0" width="77.3993" x="0" y="0"/>
  <path d="M38.6484 88.3887C40.289 88.3887 41.2802 87.2607 41.2802 85.5859L41.2802 74.9902L49.6884 79.8096C51.0898 80.5957 52.5253 80.459 53.3456 79.0918C54.0292 77.8955 53.6191 76.46 52.1494 75.6396L41.2802 69.4531L41.2802 63.0615L40.5624 47.5781L53.6533 55.918L59.2245 59.0967L59.1562 71.6064C59.1562 73.2812 60.1816 74.4092 61.5488 74.4092C63.121 74.4092 63.9413 73.2471 63.9413 71.6064L63.9755 61.8311L73.204 67.1973C74.6738 68.0518 76.1093 67.6758 76.8954 66.3086C77.6474 64.9072 77.2031 63.4375 75.8359 62.6514L66.6074 57.3535L75.0839 52.3633C76.4511 51.543 77.0322 50.2441 76.246 48.9453C75.4599 47.7148 74.0585 47.373 72.6572 48.1934L61.788 54.5508L56.2509 51.3721L42.2714 44.2285L56.2851 37.085L61.8222 33.8379L72.5888 40.1953C74.0244 41.0156 75.5624 40.708 76.2802 39.4775C77.0322 38.1445 76.4169 36.8457 75.0497 35.9912L66.6415 31.0693L75.8359 25.8057C77.3056 24.9512 77.7158 23.5498 76.8954 22.0801C76.1435 20.7471 74.6738 20.4053 73.2382 21.2598L63.9755 26.5576L63.9413 16.7822C63.9413 15.1416 63.121 14.0137 61.5146 14.0137C60.1474 14.0137 59.1562 15.1074 59.1562 16.7822L59.1904 29.3262L53.6533 32.5049L40.5624 40.8789L41.2802 25.3613L41.2802 18.9355L52.1494 12.749C53.6191 11.9287 54.0292 10.4932 53.3456 9.29688C52.5253 7.92969 51.0898 7.79297 49.6884 8.5791L41.2802 13.3984L41.2802 2.80273C41.2802 1.12793 40.289 0 38.6484 0C37.0761 0 36.0507 1.12793 36.0507 2.80273L36.0507 13.4326L27.5058 8.5791C26.1044 7.79297 24.7372 7.92969 23.9169 9.29688C23.2675 10.4932 23.7119 11.9287 25.1132 12.749L36.0507 18.9697L36.0507 25.3613L36.7685 40.8789L23.6435 32.5049L18.0722 29.3262L18.1406 16.7822C18.1406 15.1074 17.1835 14.0137 15.7822 14.0137C14.1757 14.0137 13.3896 15.1416 13.3896 16.7822L13.3212 26.5576L4.09271 21.2598C2.65716 20.4736 1.15326 20.7471 0.401304 22.0801C-0.419008 23.5498 0.0595072 24.9854 1.46087 25.8057L10.6552 31.0693L2.24701 35.9912C0.84564 36.8457 0.264585 38.042 1.05072 39.5117C1.73431 40.708 3.23822 41.0156 4.70794 40.1953L15.5087 33.8721L21.0117 37.085L35.0253 44.2285L21.0458 51.3721L15.4745 54.5508L4.67377 48.1934C3.23822 47.373 1.76849 47.7148 1.11908 48.877C0.332945 50.3467 0.84564 51.543 2.24701 52.3633L10.6894 57.3535L1.49505 62.6514C0.0595072 63.4717-0.384829 64.9756 0.401304 66.3086C1.22162 67.71 2.69134 67.9834 4.09271 67.1973L13.3212 61.8994L13.3554 71.6064C13.3554 73.2471 14.1757 74.4092 15.7822 74.4092C17.1152 74.4092 18.1406 73.2812 18.1406 71.6064L18.1064 59.0967L23.6435 55.9521L36.7685 47.5781L36.0507 63.0615L36.0507 69.4189L25.1132 75.6396C23.7119 76.46 23.2675 77.8955 23.9169 79.0918C24.7372 80.459 26.1044 80.5957 27.5058 79.8096L36.0507 74.9561L36.0507 85.5859C36.0507 87.2607 37.0761 88.3887 38.6484 88.3887Z" fill="#5ac8f5"/>
 </g>
</svg>
