<?xml version="1.0" encoding="UTF-8"?>
<!--Generator: Apple Native CoreSVG 232.5-->
<!DOCTYPE svg
PUBLIC "-//W3C//DTD SVG 1.1//EN"
       "http://www.w3.org/Graphics/SVG/1.1/DTD/svg11.dtd">
<svg version="1.1" xmlns="http://www.w3.org/2000/svg" xmlns:xlink="http://www.w3.org/1999/xlink" width="95.0195" height="95.1904">
 <g>
  <rect height="95.1904" opacity="0" width="95.0195" x="0" y="0"/>
  <path d="M47.4414 16.4404C49.2529 16.4404 50.6885 14.9707 50.6885 13.1934L50.6885 3.24707C50.6885 1.46973 49.2529 0 47.4414 0C45.6641 0 44.2285 1.46973 44.2285 3.24707L44.2285 13.1934C44.2285 14.9707 45.6641 16.4404 47.4414 16.4404ZM69.4189 25.6006C70.6836 26.8311 72.7344 26.8652 74.0332 25.6006L81.0742 18.5596C82.3047 17.2949 82.3047 15.21 81.0742 13.9453C79.8096 12.7148 77.7588 12.7148 76.4941 13.9453L69.4189 21.0205C68.1885 22.2852 68.1885 24.3359 69.4189 25.6006ZM78.5107 47.5781C78.5107 49.3555 79.9805 50.791 81.7578 50.791L91.6699 50.791C93.4473 50.791 94.917 49.3555 94.917 47.5781C94.917 45.8008 93.4473 44.3311 91.6699 44.3311L81.7578 44.3311C79.9805 44.3311 78.5107 45.8008 78.5107 47.5781ZM69.4189 69.5557C68.1885 70.8203 68.1885 72.8711 69.4189 74.1357L76.4941 81.2109C77.7588 82.4414 79.8096 82.4072 81.0742 81.1768C82.3047 79.9121 82.3047 77.8955 81.0742 76.6309L73.999 69.5557C72.7344 68.3252 70.6836 68.3252 69.4189 69.5557ZM47.4414 78.7158C45.6641 78.7158 44.2285 80.1514 44.2285 81.9287L44.2285 91.875C44.2285 93.6865 45.6641 95.1221 47.4414 95.1221C49.2529 95.1221 50.6885 93.6865 50.6885 91.875L50.6885 81.9287C50.6885 80.1514 49.2529 78.7158 47.4414 78.7158ZM25.498 69.5557C24.2334 68.3252 22.1484 68.3252 20.8838 69.5557L13.8428 76.5967C12.6123 77.8613 12.6123 79.8779 13.8086 81.1426C15.0732 82.373 17.124 82.4072 18.3887 81.1768L25.4639 74.1357C26.6943 72.8711 26.6943 70.8203 25.498 69.5557ZM16.3721 47.5781C16.3721 45.8008 14.9365 44.3311 13.1592 44.3311L3.24707 44.3311C1.46973 44.3311 0 45.8008 0 47.5781C0 49.3555 1.46973 50.791 3.24707 50.791L13.1592 50.791C14.9365 50.791 16.3721 49.3555 16.3721 47.5781ZM25.4639 25.6006C26.6943 24.3701 26.6943 22.251 25.498 21.0205L18.4229 13.9453C17.1924 12.749 15.1416 12.7148 13.877 13.9453C12.6465 15.21 12.6465 17.2949 13.8428 18.5254L20.8838 25.6006C22.1484 26.8311 24.1992 26.8311 25.4639 25.6006Z" fill="#ffd60a"/>
  <path d="M47.4072 69.5898C59.4385 69.5898 69.4189 59.6094 69.4189 47.5781C69.4189 35.5127 59.4385 25.5322 47.4072 25.5322C35.376 25.5322 25.4297 35.5127 25.4297 47.5781C25.4297 59.6094 35.376 69.5898 47.4072 69.5898Z" fill="#ffd60a"/>
 </g>
</svg>
