<?xml version="1.0" encoding="UTF-8"?>
<!--Generator: Apple Native CoreSVG 232.5-->
<!DOCTYPE svg
PUBLIC "-//W3C//DTD SVG 1.1//EN"
       "http://www.w3.org/Graphics/SVG/1.1/DTD/svg11.dtd">
<svg version="1.1" xmlns="http://www.w3.org/2000/svg" xmlns:xlink="http://www.w3.org/1999/xlink" width="104.624" height="101.7">
 <g>
  <rect height="101.7" opacity="0" width="104.624" x="0" y="0"/>
  <path d="M74.375 100.428L80.3906 89.9686C81.1426 88.7382 80.7666 87.4052 79.6045 86.7216C78.4424 86.0722 77.1436 86.4481 76.3916 87.6444L70.3076 98.1718C69.6582 99.3339 69.9658 100.667 71.1621 101.35C72.3242 102 73.6914 101.624 74.375 100.428Z" fill="#66d4cf"/>
  <path d="M60.498 88.0204L66.5479 77.5614C67.2998 76.3651 66.9238 74.9979 65.7617 74.3143C64.5996 73.6649 63.2666 74.0409 62.5488 75.2372L56.4648 85.7987C55.8154 86.9266 56.123 88.2597 57.3193 88.9432C58.4473 89.5927 59.8486 89.2167 60.498 88.0204Z" fill="#66d4cf"/>
  <path d="M39.2725 100.462L45.3223 90.0028C46.04 88.7723 45.6641 87.4393 44.502 86.7557C43.3398 86.1063 42.041 86.4823 41.3232 87.6786L35.2393 98.2059C34.5557 99.368 34.8633 100.701 36.0596 101.385C37.2217 102.034 38.5889 101.658 39.2725 100.462Z" fill="#66d4cf"/>
  <path d="M25.4297 88.0546L31.4795 77.5956C32.1973 76.3993 31.8213 75.0321 30.6592 74.3485C29.4971 73.6991 28.1982 74.0751 27.4463 75.3055L21.3965 85.8329C20.7129 86.9608 21.0205 88.328 22.2168 89.0116C23.3789 89.6268 24.7461 89.2509 25.4297 88.0546Z" fill="#66d4cf"/>
  <path d="M24.7461 67.2391L79.6729 67.2391C93.9258 67.2391 104.624 56.4384 104.624 43.0399C104.624 29.1972 93.2764 19.08 78.5107 19.08C72.9736 8.0741 62.9248 0.964728 50.0049 0.964728C33.5986 0.964728 20.0977 13.9872 18.6621 30.3593C10.5957 32.6493 4.40918 39.4511 4.40918 48.7479C4.40918 58.9335 11.8604 67.2391 24.7461 67.2391Z" fill="#ffffff"/>
 </g>
</svg>
