<?xml version="1.0" encoding="UTF-8"?>
<!--Generator: Apple Native CoreSVG 232.5-->
<!DOCTYPE svg
PUBLIC "-//W3C//DTD SVG 1.1//EN"
       "http://www.w3.org/Graphics/SVG/1.1/DTD/svg11.dtd">
<svg version="1.1" xmlns="http://www.w3.org/2000/svg" xmlns:xlink="http://www.w3.org/1999/xlink" width="104.624" height="101.959">
 <g>
  <rect height="101.959" opacity="0" width="104.624" x="0" y="0"/>
  <path d="M69.3848 100.728L82.7148 77.6908C83.3984 76.4945 83.0566 75.1274 81.8945 74.5121C80.7666 73.8969 79.4336 74.1703 78.75 75.4008L65.4883 98.4037C64.8047 99.6 65.1123 100.967 66.2744 101.651C67.334 102.3 68.7695 101.89 69.3848 100.728Z" fill="#5ac8f5"/>
  <path d="M51.9189 100.694L65.1465 77.7592C65.8984 76.4945 65.5225 75.1957 64.3604 74.5121C63.1982 73.8285 61.8994 74.1703 61.1475 75.435L47.8857 98.4721C47.2363 99.6 47.5098 100.967 48.7061 101.651C49.8682 102.3 51.2354 101.89 51.9189 100.694Z" fill="#5ac8f5"/>
  <path d="M34.3848 100.694L47.6123 77.7592C48.3301 76.4945 47.9541 75.1957 46.8262 74.5121C45.6641 73.8285 44.3311 74.1703 43.6133 75.435L30.3174 98.4721C29.7021 99.6 29.9756 100.967 31.1719 101.651C32.334 102.3 33.7012 101.89 34.3848 100.694Z" fill="#5ac8f5"/>
  <path d="M16.7822 100.694L30.0439 77.7592C30.7617 76.4945 30.3857 75.1957 29.2236 74.5121C28.0615 73.8285 26.7627 74.1703 26.0449 75.435L12.749 98.4721C12.0996 99.6 12.4072 100.967 13.5693 101.651C14.7314 102.3 16.0986 101.89 16.7822 100.694Z" fill="#5ac8f5"/>
  <path d="M24.7461 67.3686L79.6729 67.3686C93.9258 67.3686 104.624 56.5678 104.624 43.1694C104.624 29.3266 93.2764 19.2094 78.5107 19.2094C72.9736 8.20353 62.9248 1.09416 50.0049 1.09416C33.5986 1.09416 20.0977 14.1166 18.6621 30.4887C10.5957 32.7787 4.40918 39.5805 4.40918 48.8774C4.40918 59.0629 11.8604 67.3686 24.7461 67.3686Z" fill="#ffffff"/>
 </g>
</svg>
