<?xml version="1.0" encoding="UTF-8"?>
<!--Generator: Apple Native CoreSVG 232.5-->
<!DOCTYPE svg
PUBLIC "-//W3C//DTD SVG 1.1//EN"
       "http://www.w3.org/Graphics/SVG/1.1/DTD/svg11.dtd">
<svg version="1.1" xmlns="http://www.w3.org/2000/svg" xmlns:xlink="http://www.w3.org/1999/xlink" width="104.624" height="111.6">
 <g>
  <rect height="111.6" opacity="0" width="104.624" x="0" y="0"/>
  <path d="M85.415 106.198C86.5771 106.847 87.9443 106.471 88.6279 105.275L94.6777 94.8159C95.3955 93.6196 95.0195 92.2524 93.8574 91.5688C92.6953 90.9194 91.3965 91.2954 90.6787 92.4917L84.5947 103.019C83.9111 104.181 84.2188 105.514 85.415 106.198Z" fill="#5ac8f5"/>
  <path d="M76.7676 93.893C77.9297 94.5425 79.2969 94.1323 79.9805 92.936L86.0303 82.477C86.748 81.2807 86.3721 79.9136 85.21 79.23C84.0479 78.5805 82.749 78.9565 82.0312 80.187L75.9473 90.7143C75.2637 91.8423 75.6055 93.2095 76.7676 93.893Z" fill="#5ac8f5"/>
  <path d="M63.7451 89.2788L54.1748 89.2788L54.209 91.0561L59.8486 80.2895C60.3271 79.3325 59.9512 78.5805 58.96 78.5805L50.8252 78.5805C49.5947 78.5805 49.1162 79.0249 48.7402 79.9477L42.6904 93.7563C42.2119 94.8501 42.7246 95.4995 43.8867 95.4995L51.6113 95.4995L52.1582 92.8677L45.0146 110.231C44.7754 110.846 44.9121 111.359 45.3223 111.53C45.7324 111.701 46.2451 111.564 46.6895 111.051L64.4971 91.4321C65.3857 90.4751 65.0098 89.2788 63.7451 89.2788Z" fill="#ff453a"/>
  <path d="M24.5752 106.198C25.7373 106.847 27.1045 106.471 27.7881 105.275L33.8379 94.8159C34.5557 93.6196 34.1797 92.2524 33.0176 91.5688C31.8555 90.9194 30.5566 91.2954 29.8389 92.4917L23.7549 103.019C23.0713 104.181 23.4131 105.514 24.5752 106.198Z" fill="#5ac8f5"/>
  <path d="M15.9277 93.893C17.0898 94.5425 18.4912 94.1323 19.1406 92.936L25.1904 82.477C25.9082 81.2807 25.5322 79.9136 24.4043 79.23C23.208 78.5805 21.9092 78.9565 21.1914 80.187L15.1074 90.7143C14.4238 91.8423 14.7656 93.2095 15.9277 93.893Z" fill="#5ac8f5"/>
  <path d="M24.7461 72.1889L79.6729 72.1889C93.9258 72.1889 104.624 61.3882 104.624 47.9897C104.624 34.147 93.2764 24.0298 78.5107 24.0298C72.9736 13.0239 62.9248 5.91453 50.0049 5.91453C33.5986 5.91453 20.0977 18.937 18.6621 35.3091C10.5957 37.5991 4.40918 44.4009 4.40918 53.6977C4.40918 63.8833 11.8604 72.1889 24.7461 72.1889ZM24.6777 66.1733C15.2783 66.1733 10.3906 60.7388 10.3906 53.8686C10.3906 48.0581 13.9453 43.0679 21.5674 41.0513C23.7549 40.4702 24.541 39.479 24.6777 37.2915C25.6689 22.7651 36.9141 11.9302 50.0049 11.9302C60.5322 11.9302 68.5645 17.7749 73.3154 27.5845C74.2383 29.5327 75.4004 30.1821 77.7588 30.1821C90.7471 30.1821 98.6426 38.2827 98.6426 48.1606C98.6426 58.1069 90.542 66.1733 80.0146 66.1733Z" fill="#ff453a"/>
 </g>
</svg>
